<svg width="153" height="35" viewBox="0 0 153 35" fill="none" xmlns="http://www.w3.org/2000/svg">
<path d="M10.06 25.245C8.26333 25.245 6.65333 24.9533 5.23 24.37C3.80667 23.7867 2.66333 22.9233 1.8 21.78C0.96 20.6367 0.516667 19.26 0.47 17.65H6.84C6.93333 18.56 7.24833 19.26 7.785 19.75C8.32167 20.2167 9.02167 20.45 9.885 20.45C10.7717 20.45 11.4717 20.2517 11.985 19.855C12.4983 19.435 12.755 18.8633 12.755 18.14C12.755 17.5333 12.545 17.0317 12.125 16.635C11.7283 16.2383 11.2267 15.9117 10.62 15.655C10.0367 15.3983 9.19667 15.1067 8.1 14.78C6.51333 14.29 5.21833 13.8 4.215 13.31C3.21167 12.82 2.34833 12.0967 1.625 11.14C0.901667 10.1833 0.54 8.935 0.54 7.395C0.54 5.10833 1.36833 3.32333 3.025 2.04C4.68167 0.733333 6.84 0.0799996 9.5 0.0799996C12.2067 0.0799996 14.3883 0.733333 16.045 2.04C17.7017 3.32333 18.5883 5.12 18.705 7.43H12.23C12.1833 6.63667 11.8917 6.01833 11.355 5.575C10.8183 5.10833 10.13 4.875 9.29 4.875C8.56667 4.875 7.98333 5.07333 7.54 5.47C7.09667 5.84333 6.875 6.39166 6.875 7.115C6.875 7.90833 7.24833 8.52667 7.995 8.97C8.74167 9.41333 9.90833 9.89167 11.495 10.405C13.0817 10.9417 14.365 11.455 15.345 11.945C16.3483 12.435 17.2117 13.1467 17.935 14.08C18.6583 15.0133 19.02 16.215 19.02 17.685C19.02 19.085 18.6583 20.3567 17.935 21.5C17.235 22.6433 16.2083 23.5533 14.855 24.23C13.5017 24.9067 11.9033 25.245 10.06 25.245ZM42.6532 5.47L30.4032 34.275H23.9632L28.4432 24.335L20.4982 5.47H27.1832L31.6982 17.685L36.1782 5.47H42.6532ZM56.7175 5.26C59.0041 5.26 60.8241 6.00667 62.1775 7.5C63.5541 8.97 64.2425 11 64.2425 13.59V25H58.2925V14.395C58.2925 13.0883 57.9541 12.0733 57.2775 11.35C56.6008 10.6267 55.6908 10.265 54.5475 10.265C53.4041 10.265 52.4941 10.6267 51.8175 11.35C51.1408 12.0733 50.8025 13.0883 50.8025 14.395V25H44.8175V5.47H50.8025V8.06C51.4091 7.19667 52.2258 6.52 53.2525 6.03C54.2791 5.51667 55.4341 5.26 56.7175 5.26Z" fill="#00BCDD"/>
<path d="M67.3864 12.68C67.3864 10.2533 67.9114 8.095 68.9614 6.205C70.0114 4.29167 71.4698 2.81 73.3364 1.76C75.2264 0.686665 77.3614 0.149999 79.7414 0.149999C82.6581 0.149999 85.1548 0.919998 87.2314 2.46C89.3081 4 90.6964 6.1 91.3964 8.76H84.8164C84.3264 7.73333 83.6264 6.95167 82.7164 6.415C81.8298 5.87833 80.8148 5.61 79.6714 5.61C77.8281 5.61 76.3348 6.25167 75.1914 7.535C74.0481 8.81833 73.4764 10.5333 73.4764 12.68C73.4764 14.8267 74.0481 16.5417 75.1914 17.825C76.3348 19.1083 77.8281 19.75 79.6714 19.75C80.8148 19.75 81.8298 19.4817 82.7164 18.945C83.6264 18.4083 84.3264 17.6267 84.8164 16.6H91.3964C90.6964 19.26 89.3081 21.36 87.2314 22.9C85.1548 24.4167 82.6581 25.175 79.7414 25.175C77.3614 25.175 75.2264 24.65 73.3364 23.6C71.4698 22.5267 70.0114 21.045 68.9614 19.155C67.9114 17.265 67.3864 15.1067 67.3864 12.68ZM93.8716 15.2C93.8716 13.1933 94.2449 11.4317 94.9916 9.915C95.7616 8.39833 96.7999 7.23167 98.1066 6.415C99.4133 5.59833 100.872 5.19 102.482 5.19C103.858 5.19 105.06 5.47 106.087 6.03C107.137 6.59 107.942 7.325 108.502 8.235V5.47H114.487V25H108.502V22.235C107.918 23.145 107.102 23.88 106.052 24.44C105.025 25 103.823 25.28 102.447 25.28C100.86 25.28 99.4133 24.8717 98.1066 24.055C96.7999 23.215 95.7616 22.0367 94.9916 20.52C94.2449 18.98 93.8716 17.2067 93.8716 15.2ZM108.502 15.235C108.502 13.7417 108.082 12.5633 107.242 11.7C106.425 10.8367 105.422 10.405 104.232 10.405C103.042 10.405 102.027 10.8367 101.187 11.7C100.37 12.54 99.9616 13.7067 99.9616 15.2C99.9616 16.6933 100.37 17.8833 101.187 18.77C102.027 19.6333 103.042 20.065 104.232 20.065C105.422 20.065 106.425 19.6333 107.242 18.77C108.082 17.9067 108.502 16.7283 108.502 15.235ZM124.801 8.725C125.501 7.65167 126.376 6.81167 127.426 6.205C128.476 5.575 129.643 5.26 130.926 5.26V11.595H129.281C127.788 11.595 126.668 11.9217 125.921 12.575C125.175 13.205 124.801 14.325 124.801 15.935V25H118.816V5.47H124.801V8.725ZM152.197 14.92C152.197 15.48 152.162 16.0633 152.092 16.67H138.547C138.641 17.8833 139.026 18.8167 139.702 19.47C140.402 20.1 141.254 20.415 142.257 20.415C143.751 20.415 144.789 19.785 145.372 18.525H151.742C151.416 19.8083 150.821 20.9633 149.957 21.99C149.117 23.0167 148.056 23.8217 146.772 24.405C145.489 24.9883 144.054 25.28 142.467 25.28C140.554 25.28 138.851 24.8717 137.357 24.055C135.864 23.2383 134.697 22.0717 133.857 20.555C133.017 19.0383 132.597 17.265 132.597 15.235C132.597 13.205 133.006 11.4317 133.822 9.915C134.662 8.39833 135.829 7.23167 137.322 6.415C138.816 5.59833 140.531 5.19 142.467 5.19C144.357 5.19 146.037 5.58667 147.507 6.38C148.977 7.17333 150.121 8.305 150.937 9.775C151.777 11.245 152.197 12.96 152.197 14.92ZM146.072 13.345C146.072 12.3183 145.722 11.5017 145.022 10.895C144.322 10.2883 143.447 9.985 142.397 9.985C141.394 9.985 140.542 10.2767 139.842 10.86C139.166 11.4433 138.746 12.2717 138.582 13.345H146.072Z" fill="black"/>
</svg>
