<svg width="100" height="25" viewBox="0 0 423 299" fill="none" xmlns="http://www.w3.org/2000/svg">
<path d="M30.336 261.672C25.408 261.672 20.992 260.872 17.088 259.272C13.184 257.672 10.048 255.304 7.68 252.168C5.376 249.032 4.16 245.256 4.032 240.84H21.504C21.76 243.336 22.624 245.256 24.096 246.6C25.568 247.88 27.488 248.52 29.856 248.52C32.288 248.52 34.208 247.976 35.616 246.888C37.024 245.736 37.728 244.168 37.728 242.184C37.728 240.52 37.152 239.144 36 238.056C34.912 236.968 33.536 236.072 31.872 235.368C30.272 234.664 27.968 233.864 24.96 232.968C20.608 231.624 17.056 230.28 14.304 228.936C11.552 227.592 9.184 225.608 7.2 222.984C5.216 220.36 4.224 216.936 4.224 212.712C4.224 206.44 6.496 201.544 11.04 198.024C15.584 194.44 21.504 192.648 28.8 192.648C36.224 192.648 42.208 194.44 46.752 198.024C51.296 201.544 53.728 206.472 54.048 212.808H36.288C36.16 210.632 35.36 208.936 33.888 207.72C32.416 206.44 30.528 205.8 28.224 205.8C26.24 205.8 24.64 206.344 23.424 207.432C22.208 208.456 21.6 209.96 21.6 211.944C21.6 214.12 22.624 215.816 24.672 217.032C26.72 218.248 29.92 219.56 34.272 220.968C38.624 222.44 42.144 223.848 44.832 225.192C47.584 226.536 49.952 228.488 51.936 231.048C53.92 233.608 54.912 236.904 54.912 240.936C54.912 244.776 53.92 248.264 51.936 251.4C50.016 254.536 47.2 257.032 43.488 258.888C39.776 260.744 35.392 261.672 30.336 261.672ZM119.735 207.432L86.1345 286.44H68.4705L80.7585 259.176L58.9665 207.432H77.3025L89.6865 240.936L101.975 207.432H119.735ZM158.311 206.856C164.583 206.856 169.575 208.904 173.287 213C177.063 217.032 178.951 222.6 178.951 229.704V261H162.631V231.912C162.631 228.328 161.703 225.544 159.847 223.56C157.991 221.576 155.495 220.584 152.359 220.584C149.223 220.584 146.727 221.576 144.871 223.56C143.015 225.544 142.087 228.328 142.087 231.912V261H125.671V207.432H142.087V214.536C143.751 212.168 145.991 210.312 148.807 208.968C151.623 207.56 154.791 206.856 158.311 206.856Z" fill="#00BCDD"/>
<path d="M187.574 227.208C187.574 220.552 189.014 214.632 191.894 209.448C194.774 204.2 198.774 200.136 203.894 197.256C209.078 194.312 214.934 192.84 221.462 192.84C229.462 192.84 236.31 194.952 242.006 199.176C247.702 203.4 251.51 209.16 253.43 216.456H235.382C234.038 213.64 232.118 211.496 229.622 210.024C227.19 208.552 224.406 207.816 221.27 207.816C216.214 207.816 212.118 209.576 208.982 213.096C205.846 216.616 204.278 221.32 204.278 227.208C204.278 233.096 205.846 237.8 208.982 241.32C212.118 244.84 216.214 246.6 221.27 246.6C224.406 246.6 227.19 245.864 229.622 244.392C232.118 242.92 234.038 240.776 235.382 237.96H253.43C251.51 245.256 247.702 251.016 242.006 255.24C236.31 259.4 229.462 261.48 221.462 261.48C214.934 261.48 209.078 260.04 203.894 257.16C198.774 254.216 194.774 250.152 191.894 244.968C189.014 239.784 187.574 233.864 187.574 227.208ZM260.219 234.12C260.219 228.616 261.243 223.784 263.291 219.624C265.403 215.464 268.251 212.264 271.835 210.024C275.419 207.784 279.419 206.664 283.835 206.664C287.611 206.664 290.907 207.432 293.723 208.968C296.603 210.504 298.811 212.52 300.347 215.016V207.432H316.763V261H300.347V253.416C298.747 255.912 296.507 257.928 293.627 259.464C290.811 261 287.515 261.768 283.739 261.768C279.387 261.768 275.419 260.648 271.835 258.408C268.251 256.104 265.403 252.872 263.291 248.712C261.243 244.488 260.219 239.624 260.219 234.12ZM300.347 234.216C300.347 230.12 299.195 226.888 296.891 224.52C294.651 222.152 291.899 220.968 288.635 220.968C285.371 220.968 282.587 222.152 280.283 224.52C278.043 226.824 276.923 230.024 276.923 234.12C276.923 238.216 278.043 241.48 280.283 243.912C282.587 246.28 285.371 247.464 288.635 247.464C291.899 247.464 294.651 246.28 296.891 243.912C299.195 241.544 300.347 238.312 300.347 234.216ZM345.056 216.36C346.976 213.416 349.376 211.112 352.256 209.448C355.136 207.72 358.336 206.856 361.856 206.856V224.232H357.344C353.248 224.232 350.176 225.128 348.128 226.92C346.08 228.648 345.056 231.72 345.056 236.136V261H328.64V207.432H345.056V216.36ZM420.198 233.352C420.198 234.888 420.102 236.488 419.91 238.152H382.758C383.014 241.48 384.07 244.04 385.926 245.832C387.846 247.56 390.182 248.424 392.934 248.424C397.03 248.424 399.878 246.696 401.478 243.24H418.95C418.054 246.76 416.422 249.928 414.054 252.744C411.75 255.56 408.838 257.768 405.318 259.368C401.798 260.968 397.862 261.768 393.51 261.768C388.262 261.768 383.59 260.648 379.494 258.408C375.398 256.168 372.198 252.968 369.894 248.808C367.59 244.648 366.438 239.784 366.438 234.216C366.438 228.648 367.558 223.784 369.798 219.624C372.102 215.464 375.302 212.264 379.398 210.024C383.494 207.784 388.198 206.664 393.51 206.664C398.694 206.664 403.302 207.752 407.334 209.928C411.366 212.104 414.502 215.208 416.742 219.24C419.046 223.272 420.198 227.976 420.198 233.352ZM403.398 229.032C403.398 226.216 402.438 223.976 400.518 222.312C398.598 220.648 396.198 219.816 393.318 219.816C390.566 219.816 388.23 220.616 386.31 222.216C384.454 223.816 383.302 226.088 382.854 229.032H403.398Z" fill="black"/>
<path fill-rule="evenodd" clip-rule="evenodd" d="M174.75 0C195.054 0 211.5 16.129 211.5 36.026C211.5 16.129 227.946 0 248.25 0C268.554 0 285 16.129 285 36.026C285 47.9633 280.292 56.8249 272.089 66.1789L270.308 60.9696L269.922 59.9403L269.807 59.6736C262.911 43.6843 239.458 44.0762 233.629 61.1346L230.699 69.7176L230.544 70.1309C230.393 70.467 230.177 70.7706 229.908 71.0242C229.615 71.3008 229.265 71.512 228.883 71.6426L219.91 74.7073L218.883 75.1052L218.679 75.1929C202.67 82.0872 203.087 105.546 220.14 111.37L225.011 113.033C221.79 116.557 218.483 120.31 215.102 124.327C214.659 124.851 214.108 125.272 213.486 125.561C212.863 125.85 212.186 126 211.5 126C210.814 126 210.137 125.85 209.514 125.561C208.892 125.272 208.341 124.851 207.898 124.327C193.186 106.851 179.878 94.3551 168.917 84.0639C149.939 66.2452 138 55.0353 138 36.026C138 16.129 154.446 0 174.75 0ZM220.509 97.5335C217.779 93.9682 218.752 88.2269 223.425 86.2143L224.018 85.9846L232.763 82.9979C234.769 82.3126 236.604 81.2052 238.146 79.7503C239.687 78.2954 240.898 76.5269 241.698 74.5641L241.998 73.7637L244.984 65.0149C247.2 58.5302 256.16 58.3338 258.788 64.4257L259.01 65.0186L262 73.7637C262.686 75.7693 263.793 77.6045 265.248 79.1457C266.703 80.6869 268.472 81.8982 270.434 82.6978L271.238 82.9979L279.984 85.9846C286.468 88.2005 286.665 97.1605 280.577 99.7878L279.984 100.01L271.238 103C269.232 103.685 267.396 104.793 265.854 106.248C264.312 107.702 263.101 109.471 262.301 111.434L262 112.235L259.014 120.984C256.798 127.468 247.838 127.665 245.214 121.576L244.984 120.984L241.998 112.238C241.313 110.232 240.206 108.396 238.751 106.854C237.296 105.312 235.527 104.101 233.564 103.301L232.763 103L224.018 100.014C222.507 99.4977 221.337 98.6159 220.509 97.5335Z" fill="black"/>
<path d="M244.985 65.0154C247.201 58.5307 256.161 58.3343 258.788 64.4262L259.01 65.0191L262.001 73.7642C262.686 75.7698 263.794 77.6051 265.249 79.1463C266.703 80.6874 268.472 81.8987 270.435 82.6983L271.239 82.9985L279.984 85.9851C286.469 88.2011 286.665 97.1611 280.577 99.7883L279.984 100.011L271.239 103.001C269.233 103.686 267.397 104.793 265.855 106.248C264.313 107.703 263.101 109.472 262.301 111.435L262.001 112.235L259.014 120.984C256.798 127.469 247.838 127.665 245.215 121.577L244.985 120.984L241.998 112.239C241.313 110.233 240.206 108.397 238.751 106.855C237.296 105.313 235.527 104.101 233.564 103.301L232.764 103.001L224.019 100.014C217.53 97.7984 217.334 88.8384 223.426 86.2149L224.019 85.9851L232.764 82.9985C234.769 82.3132 236.605 81.2057 238.146 79.7508C239.687 78.2959 240.898 76.5274 241.698 74.5646L241.998 73.7642L244.985 65.0154Z" fill="#00BCDD"/>
</svg>
