<svg xmlns="http://www.w3.org/2000/svg" viewBox="0 0 64 64" id="medical-records">
  <path d="M49.82,59.07H14.18a3.88,3.88,0,0,1-3.87-3.88V10.28a3.87,3.87,0,0,1,3.87-3.87h9.4a1,1,0,0,1,1,1v3.88a.16.16,0,0,0,.16.16H39.26a.18.18,0,0,0,.17-.17V7.41a1,1,0,0,1,1-1h9.39a3.87,3.87,0,0,1,3.87,3.87V55.19A3.88,3.88,0,0,1,49.82,59.07ZM14.18,8.41a1.87,1.87,0,0,0-1.87,1.87V55.19a1.88,1.88,0,0,0,1.87,1.88H49.82a1.88,1.88,0,0,0,1.87-1.88V10.28a1.87,1.87,0,0,0-1.87-1.87H41.43v2.87a2.17,2.17,0,0,1-2.17,2.17H24.74a2.16,2.16,0,0,1-2.16-2.16V8.41Z"></path>
  <path d="M47.84,53.8h-32a1,1,0,0,1-1-1v-42a1,1,0,0,1,1-1h7.58a1,1,0,0,1,1,1v.55a.18.18,0,0,0,.16.2H39.09a.19.19,0,0,0,.17-.2v-.55a1,1,0,0,1,1-1h7.58a1,1,0,0,1,1,1v42A1,1,0,0,1,47.84,53.8Zm-31-2h30v-40H41.22a2.18,2.18,0,0,1-2.13,1.75H24.57a2.18,2.18,0,0,1-2.12-1.75H16.83Z"></path>
  <path d="M39.27 13.45H24.74a2.16 2.16 0 01-2.16-2.16V6.44a2.17 2.17 0 012.16-2.17H39.26a2.18 2.18 0 012.17 2.18v4.84A2.16 2.16 0 0139.27 13.45zM24.74 6.27a.17.17 0 00-.16.17v4.85a.16.16 0 00.16.16H39.27a.16.16 0 00.16-.16V6.45a.18.18 0 00-.17-.18zM32 21.94a1 1 0 01-1-1V16.7a1 1 0 012 0v4.24A1 1 0 0132 21.94z"></path>
  <path d="M34.12 19.82H29.88a1 1 0 010-2h4.24a1 1 0 010 2zM44.6 26.19H19.07a1 1 0 010-2H44.6a1 1 0 010 2zM44.6 32.21H19.07a1 1 0 010-2H44.6a1 1 0 010 2zM44.6 38.05H19.07a1 1 0 010-2H44.6a1 1 0 110 2zM44.6 43.7H19.07a1 1 0 010-2H44.6a1 1 0 110 2z"></path>
</svg>
