<?xml version="1.0" encoding="UTF-8"?>
<svg version="1.1" xmlns="http://www.w3.org/2000/svg" width="128" height="128">
<path d="M0 0 C-0.49658297 5.66104589 -1.54510684 9.87674471 -4 15 C-3.34 14.67 -2.68 14.34 -2 14 C0.6723621 13.86584528 3.32250488 13.95681459 6 14 C6.35496755 18.22263477 5.60053299 20.0196955 3 23.3125 C0.77669483 26.43238277 -0.38711988 28.32818237 -0.1875 32.1875 C0.0266988 36.54287564 -0.72396687 38.34208961 -3 42 C-3.70125 42.763125 -4.4025 43.52625 -5.125 44.3125 C-7.11810872 47.16928917 -7.26983964 48.20873479 -7.5 51.5625 C-7.73258479 54.8078692 -7.8692069 55.81508562 -9.8125 58.5625 C-12 60 -12 60 -16 60 C-15.9175 60.99 -15.835 61.98 -15.75 63 C-15.7956973 68.66646489 -18.06369063 72.94068737 -21.90625 77.02734375 C-27.60309628 82.22465314 -27.60309628 82.22465314 -32 83 C-32 84.65 -32 86.3 -32 88 C-31.28714844 88.18175781 -30.57429688 88.36351563 -29.83984375 88.55078125 C-20.06444842 91.11632915 -12.86456905 93.34830902 -7 102 C-4 109 -4 109 -4 126 C-27.76 126 -51.52 126 -76 126 C-76 105.90860215 -76 105.90860215 -71 99 C-70.62359375 98.41992188 -70.2471875 97.83984375 -69.859375 97.2421875 C-65.24035095 91.42455594 -56.8891869 89.86238785 -50 88 C-49.34 88 -48.68 88 -48 88 C-48 86.35 -48 84.7 -48 83 C-48.99 82.7215625 -48.99 82.7215625 -50 82.4375 C-55.35803211 79.87010961 -60.40680553 75.97040547 -63 70.5 C-64.05001346 66.82495287 -64.23279489 63.80231647 -64 60 C-64.94875 59.896875 -65.8975 59.79375 -66.875 59.6875 C-70 59 -70 59 -72 56 C-72.23828125 53.94921875 -72.23828125 53.94921875 -72.3125 51.6875 C-72.63818475 47.8714579 -72.90440921 47.11470894 -75.5 44 C-78.30639871 40.63232155 -78.98927016 38.7756169 -79.28515625 34.49609375 C-78.82300359 30.45067522 -76.96846448 27.17135772 -75.13671875 23.578125 C-73.68743059 20.29107968 -73.85798556 17.55036092 -74 14 C-72.61226822 9.83680466 -70.21275156 8.33388696 -66.5 6.3125 C-56.96907772 1.93380093 -46.37456332 0.62750215 -36.15234375 3.5234375 C-26.67936621 5.62090258 -16.3868935 4.52489333 -7.515625 0.875 C-4.84871867 -0.05261959 -2.8016947 -0.16124862 0 0 Z M-68 14 C-68.93290716 16.32859537 -68.93290716 16.32859537 -69 19 C-69.38330308 23.13967324 -69.89274307 26.08754333 -72.125 29.5625 C-74.24940215 32.80463498 -74.24940215 32.80463498 -74 36.125 C-72.84287548 39.45173299 -71.48788043 41.51211957 -69 44 C-68.01 44 -67.02 44 -66 44 C-66 38.06 -66 32.12 -66 26 C-48.84 26 -31.68 26 -14 26 C-14 31.94 -14 37.88 -14 44 C-9.93726073 41.96863037 -8.51977659 40.64933162 -6 37 C-4.89787181 33.45849475 -4.67504677 29.89845345 -4.37890625 26.21875 C-3.97151992 23.83323002 -3.17914162 22.10049519 -2 20 C-4.64 20 -7.28 20 -10 20 C-9.01 15.71 -8.02 11.42 -7 7 C-8.29035156 7.32484375 -9.58070312 7.6496875 -10.91015625 7.984375 C-15.80282711 9.06759491 -20.4405798 9.30700296 -25.4375 9.25 C-26.26717285 9.24613281 -27.0968457 9.24226562 -27.95166016 9.23828125 C-33.11430522 9.16538256 -37.9800641 8.76913426 -42.9921875 7.4375 C-51.14194421 5.66167753 -61.86809472 8.36527623 -68 14 Z M-62 30 C-62 35.94 -62 41.88 -62 48 C-63.65 48.66 -65.3 49.32 -67 50 C-66.67 51.65 -66.34 53.3 -66 55 C-65.34 55 -64.68 55 -64 55 C-64 54.01 -64 53.02 -64 52 C-48.16 52 -32.32 52 -16 52 C-16 52.99 -16 53.98 -16 55 C-15.01 54.67 -14.02 54.34 -13 54 C-13.33 52.35 -13.66 50.7 -14 49 C-15.32 48.67 -16.64 48.34 -18 48 C-18 42.06 -18 36.12 -18 30 C-32.52 30 -47.04 30 -62 30 Z M-60 56 C-60 57.32 -60 58.64 -60 60 C-48.78 60 -37.56 60 -26 60 C-26 61.32 -26 62.64 -26 64 C-36.89 64 -47.78 64 -59 64 C-58.67 65.32 -58.34 66.64 -58 68 C-48.76 68 -39.52 68 -30 68 C-30 69.32 -30 70.64 -30 72 C-38.25 72 -46.5 72 -55 72 C-49.58025617 77.41974383 -47.67804497 79.27392906 -40.25 79.4375 C-34.25626106 79.31339091 -30.36591372 78.15368181 -26 74 C-20.91796573 68.27000636 -20.79936604 63.99366037 -20 56 C-33.2 56 -46.4 56 -60 56 Z M-44 84 C-44.33 86.64 -44.66 89.28 -45 92 C-49.62 93.65 -54.24 95.3 -59 97 C-54.03447508 103.26601954 -50.254414 106.68169152 -42.125 107.875 C-34.65610154 108.38932534 -30.08859884 106.14614777 -24.5 101.3125 C-23.32305328 100.21929757 -22.15258106 99.11886194 -21 98 C-23.52475462 95.47524538 -25.73497997 94.95692129 -29.125 93.875 C-30.22070312 93.52179688 -31.31640625 93.16859375 -32.4453125 92.8046875 C-33.28835937 92.53914063 -34.13140625 92.27359375 -35 92 C-35.33 89.36 -35.66 86.72 -36 84 C-38.64 84 -41.28 84 -44 84 Z M-65 100 C-70.70601464 106.90728088 -72 113.11130252 -72 122 C-50.88 122 -29.76 122 -8 122 C-8.63041206 110.93325806 -8.63041206 110.93325806 -13 102 C-13.99 101.34 -14.98 100.68 -16 100 C-16.61875 100.68835938 -16.61875 100.68835938 -17.25 101.390625 C-23.83532818 108.38753619 -30.15587352 111.61039157 -39.75 112.25 C-50.0241811 112.09491802 -57.50132186 106.42743841 -65 100 Z " fill="#1FA6CC" transform="translate(82,2)"/>
<path d="M0 0 C0.825 -0.02449219 1.65 -0.04898437 2.5 -0.07421875 C6.20622437 1.05502149 8.17022235 3.3909533 10 6.6875 C10.67899425 9.96985993 10.62801747 13.16212339 10.56640625 16.50390625 C10.57204086 17.43798813 10.57767548 18.37207001 10.58348083 19.3344574 C10.59989072 22.30682049 10.58441721 25.27768928 10.5625 28.25 C10.54589189 31.22573964 10.53682273 34.20049936 10.55223083 37.17625427 C10.56149285 39.02380181 10.55240614 40.87155704 10.52259827 42.71888733 C10.54528881 48.04995338 11.04787791 50.76571685 15 54.6875 C17.09305576 58.87361152 16.42364608 64.12882948 16 68.6875 C13.73212562 73.5721525 10.8846525 76.41962562 6 78.6875 C0.4002288 79.44131535 -4.33499991 79.46053575 -9.5 77.0625 C-14.3143755 72.48884327 -16.25156236 69.3787538 -16.5 62.6875 C-16.31834532 56.83821923 -15.13792321 53.82542321 -11 49.6875 C-10.90393076 48.33250478 -10.87484673 46.97265417 -10.87402344 45.61425781 C-10.87021667 44.74955872 -10.86640991 43.88485962 -10.86248779 42.99395752 C-10.86146057 42.05235779 -10.86043335 41.11075806 -10.859375 40.140625 C-10.84104353 38.16144686 -10.82147291 36.18227988 -10.80078125 34.203125 C-10.77182038 31.07142416 -10.75000046 27.94043715 -10.74951172 24.80859375 C-10.74617657 21.79362092 -10.71161542 18.78030949 -10.671875 15.765625 C-10.6789447 14.83212219 -10.6860144 13.89861938 -10.69329834 12.93682861 C-10.60757374 8.35534835 -10.4941159 6.32668534 -7.61425781 2.60131836 C-4.79241284 0.53553177 -3.45798476 -0.0162093 0 0 Z M-4.875 8.0625 C-6.13130643 10.51789586 -6.13130643 10.51789586 -6 12.6875 C-4.02 12.6875 -2.04 12.6875 0 12.6875 C0 14.0075 0 15.3275 0 16.6875 C-1.98 16.6875 -3.96 16.6875 -6 16.6875 C-6 17.3475 -6 18.0075 -6 18.6875 C-4.68 18.6875 -3.36 18.6875 -2 18.6875 C-2 20.0075 -2 21.3275 -2 22.6875 C-3.32 22.6875 -4.64 22.6875 -6 22.6875 C-6 23.3475 -6 24.0075 -6 24.6875 C-4.02 24.6875 -2.04 24.6875 0 24.6875 C0 26.0075 0 27.3275 0 28.6875 C-1.98 28.6875 -3.96 28.6875 -6 28.6875 C-6 29.3475 -6 30.0075 -6 30.6875 C-4.68 30.6875 -3.36 30.6875 -2 30.6875 C-2 32.0075 -2 33.3275 -2 34.6875 C-3.32 34.6875 -4.64 34.6875 -6 34.6875 C-6 35.3475 -6 36.0075 -6 36.6875 C-4.02 36.6875 -2.04 36.6875 0 36.6875 C0 38.0075 0 39.3275 0 40.6875 C-1.98 40.6875 -3.96 40.6875 -6 40.6875 C-6 41.3475 -6 42.0075 -6 42.6875 C-4.68 42.6875 -3.36 42.6875 -2 42.6875 C-2 44.0075 -2 45.3275 -2 46.6875 C-3.32 46.6875 -4.64 46.6875 -6 46.6875 C-6 48.9975 -6 51.3075 -6 53.6875 C-2.04 53.6875 1.92 53.6875 6 53.6875 C6.04950439 47.79761984 6.0857692 41.9078613 6.10986328 36.01782227 C6.11990963 34.01487111 6.13354909 32.01193458 6.15087891 30.0090332 C6.17518713 27.12707912 6.18649687 24.24531928 6.1953125 21.36328125 C6.20563507 20.47038895 6.21595764 19.57749664 6.22659302 18.657547 C6.22738814 14.23354198 6.14472316 10.68529986 4 6.6875 C2.89203039 5.37629347 2.89203039 5.37629347 0.125 5.3125 C-3.17568248 5.33586161 -3.17568248 5.33586161 -4.875 8.0625 Z M-5 59.6875 C-5.33333333 62.6875 -5.33333333 62.6875 -5 65.6875 C-3.11499729 68.00313087 -3.11499729 68.00313087 0 67.9375 C3.11499729 68.00313087 3.11499729 68.00313087 5 65.6875 C5.33333333 62.6875 5.33333333 62.6875 5 59.6875 C3.11499729 57.37186913 3.11499729 57.37186913 0 57.4375 C-3.11499729 57.37186913 -3.11499729 57.37186913 -5 59.6875 Z M-11 58.6875 C-11 61.3275 -11 63.9675 -11 66.6875 C-10.67 66.6875 -10.34 66.6875 -10 66.6875 C-10 64.0475 -10 61.4075 -10 58.6875 C-10.33 58.6875 -10.66 58.6875 -11 58.6875 Z M10 58.6875 C10 61.3275 10 63.9675 10 66.6875 C10.33 66.6875 10.66 66.6875 11 66.6875 C11 64.0475 11 61.4075 11 58.6875 C10.67 58.6875 10.34 58.6875 10 58.6875 Z M-9 68.6875 C-8 70.6875 -8 70.6875 -8 70.6875 Z M-4 72.6875 C-4 73.0175 -4 73.3475 -4 73.6875 C-1.36 73.6875 1.28 73.6875 4 73.6875 C4 73.3575 4 73.0275 4 72.6875 C1.36 72.6875 -1.28 72.6875 -4 72.6875 Z " fill="#24B1C3" transform="translate(108,13.3125)"/>
<path d="M0 0 C0.85464844 -0.01417969 1.70929688 -0.02835937 2.58984375 -0.04296875 C5.37789972 0.21689745 6.85176839 0.4452678 9.0625 2.1875 C9.9609375 5.15625 9.9609375 5.15625 10.4375 8.6875 C10.61023438 9.8528125 10.78296875 11.018125 10.9609375 12.21875 C11.01121094 13.68828125 11.01121094 13.68828125 11.0625 15.1875 C4.77068505 21.47931495 4.77068505 21.47931495 -0.3125 21.6875 C-4.09262562 21.57650121 -4.84294545 21.26082801 -8 18.8125 C-10.84075893 14.69829741 -10.68936063 9.98357941 -9.9375 5.1875 C-9.09765625 2.9453125 -9.09765625 2.9453125 -7.9375 1.1875 C-5.02663331 0.2172111 -3.03526315 0.02282153 0 0 Z M-4.9375 7.1875 C-5.27083333 10.1875 -5.27083333 10.1875 -4.9375 13.1875 C-3.05249729 15.50313087 -3.05249729 15.50313087 0.0625 15.4375 C3.17749729 15.50313087 3.17749729 15.50313087 5.0625 13.1875 C5.39583333 10.1875 5.39583333 10.1875 5.0625 7.1875 C3.17749729 4.87186913 3.17749729 4.87186913 0.0625 4.9375 C-3.05249729 4.87186913 -3.05249729 4.87186913 -4.9375 7.1875 Z " fill="#1BA1D3" transform="translate(107.9375,65.8125)"/>
<path d="M0 0 C0.66 1.65 1.32 3.3 2 5 C2.99 4.34 3.98 3.68 5 3 C7.375 2.875 7.375 2.875 10 4 C12.80736048 7.42696865 15 10.5047854 15 15 C13.35 15.33 11.7 15.66 10 16 C8.68 14.02 7.36 12.04 6 10 C5.608125 10.515625 5.21625 11.03125 4.8125 11.5625 C3 13 3 13 0.5 13.1875 C-2.4729229 11.77536162 -2.6574226 11.09754515 -3.8125 8.125 C-4.68423098 5.51462325 -5 3.79459943 -5 1 C-3 0 -3 0 0 0 Z " fill="#199AD5" transform="translate(5,73)"/>
<path d="M0 0 C0.33 1.65 0.66 3.3 1 5 C-0.98 5.99 -2.96 6.98 -5 8 C-4.67 8.33 -4.34 8.66 -4 9 C-3.66796875 11.35546875 -3.66796875 11.35546875 -4 14 C-5.86328125 15.80078125 -5.86328125 15.80078125 -8.3125 17.3125 C-9.11300781 17.82425781 -9.91351563 18.33601563 -10.73828125 18.86328125 C-13 20 -13 20 -16 20 C-16.33 18.35 -16.66 16.7 -17 15 C-12.25 12 -12.25 12 -10 12 C-10.66 11.01 -11.32 10.02 -12 9 C-12.125 6.3125 -12.125 6.3125 -12 4 C-10.56570999 3.32645501 -9.12742943 2.66140299 -7.6875 2 C-6.88699219 1.62875 -6.08648437 1.2575 -5.26171875 0.875 C-3 0 -3 0 0 0 Z " fill="#1EA8CB" transform="translate(90,58)"/>
<path d="M0 0 C2.14576637 -0.02685938 4.29162645 -0.04633088 6.4375 -0.0625 C7.63246094 -0.07410156 8.82742187 -0.08570312 10.05859375 -0.09765625 C13 0 13 0 14 1 C13.71269945 3.33944736 13.38063221 5.6739143 13 8 C15.31 8 17.62 8 20 8 C20 9.65 20 11.3 20 13 C15.71 13 11.42 13 7 13 C7.33 10.36 7.66 7.72 8 5 C5.36 5 2.72 5 0 5 C0 3.35 0 1.7 0 0 Z " fill="#1491DD" transform="translate(66,85)"/>
<path d="M0 0 C3.3 1.65 6.6 3.3 10 5 C9.67 6.65 9.34 8.3 9 10 C3.37082652 9.59791618 0.99613521 7.71069698 -3 4 C-2.01 2.68 -1.02 1.36 0 0 Z " fill="#29B9BD" transform="translate(47,40)"/>
<path d="M0 0 C1.32 1.32 2.64 2.64 4 4 C0.00386479 7.71069698 -2.37082652 9.59791618 -8 10 C-8.33 8.35 -8.66 6.7 -9 5 C-8.43410156 4.72285156 -7.86820313 4.44570313 -7.28515625 4.16015625 C-6.55167969 3.79792969 -5.81820313 3.43570313 -5.0625 3.0625 C-3.96615234 2.52302734 -3.96615234 2.52302734 -2.84765625 1.97265625 C-1.03750973 1.13628173 -1.03750973 1.13628173 0 0 Z " fill="#29B9BD" transform="translate(36,40)"/>
<path d="M0 0 C1.32 0.66 2.64 1.32 4 2 C2.64978174 6.41889613 0.73884332 8.34345343 -3 11 C-3.99 10.01 -4.98 9.02 -6 8 C-4.55746343 4.63408134 -2.66735273 2.48952921 0 0 Z " fill="#32D2AB" transform="translate(122,6)"/>
<path d="M0 0 C2.31 1.98 4.62 3.96 7 6 C6.34 7.32 5.68 8.64 5 10 C1.82461668 9.65978036 0.97723135 8.97533396 -1.25 6.5625 C-3 4 -3 4 -3 2 C-2.01 1.34 -1.02 0.68 0 0 Z " fill="#34D0AA" transform="translate(93,6)"/>
<path d="M0 0 C1.32 0 2.64 0 4 0 C4 3.3 4 6.6 4 10 C2.68 10 1.36 10 0 10 C0 6.7 0 3.4 0 0 Z " fill="#36D3A5" transform="translate(106,0)"/>
</svg>
