<?xml version="1.0" encoding="UTF-8"?>
<svg version="1.1" xmlns="http://www.w3.org/2000/svg" width="128" height="128">
<path d="M0 0 C3.03067025 2.58518197 4.72940103 5.1882031 6 9 C6.30028013 13.83784659 6.35625644 18.67450395 6.4050293 23.52075195 C6.42646292 25.11602622 6.46038922 26.71118769 6.50756836 28.3059082 C6.79217957 38.03231903 6.51205435 45.12686196 1.10180664 53.61938477 C-0.29250088 55.93659899 -0.29250088 55.93659899 0.68847656 58.24047852 C2.40670295 60.54562698 4.05800544 61.23944492 6.6875 62.375 C15.6285139 66.63323827 20.6131168 72.07902275 25 81 C25.99963649 84.19142888 26.11618545 87.08661814 26.09765625 90.421875 C26.09282227 91.95908203 26.09282227 91.95908203 26.08789062 93.52734375 C26.07532227 95.12255859 26.07532227 95.12255859 26.0625 96.75 C26.05798828 97.82894531 26.05347656 98.90789062 26.04882812 100.01953125 C26.03705727 102.67974383 26.02061399 105.33984365 26 108 C24.68 108 23.36 108 22 108 C21.96559814 107.38592285 21.93119629 106.7718457 21.89575195 106.13916016 C21.09283459 87.2326721 21.09283459 87.2326721 11 71.9375 C8.06976587 69.42671471 5.82165274 68.53741992 2 68 C1.5875 68.4846875 1.175 68.969375 0.75 69.46875 C-3.09066384 73.92666339 -7.07395325 78.14432014 -11.30078125 82.23828125 C-13.19089136 84.09309306 -13.19089136 84.09309306 -15 87 C-17.3828125 87.40625 -17.3828125 87.40625 -20 87 C-21.9921875 85.53125 -21.9921875 85.53125 -23.875 83.5 C-24.89787109 82.41138672 -24.89787109 82.41138672 -25.94140625 81.30078125 C-28.47041119 78.47424632 -30.99394785 75.64604206 -33.45703125 72.76171875 C-33.96621094 72.18035156 -34.47539063 71.59898438 -35 71 C-35.45761719 70.40832031 -35.91523437 69.81664063 -36.38671875 69.20703125 C-37.98528365 67.7468611 -37.98528365 67.7468611 -40.40234375 68.09375 C-43.39276846 69.13702599 -45.18309175 70.41439694 -47.5625 72.5 C-48.30628906 73.1290625 -49.05007812 73.758125 -49.81640625 74.40625 C-55.61887344 81.29862606 -56.69349736 88.80338039 -57.25 97.5625 C-57.32734375 98.57119141 -57.4046875 99.57988281 -57.484375 100.61914062 C-57.67088536 103.07874593 -57.84244732 105.53839952 -58 108 C-59.32 108 -60.64 108 -62 108 C-62.11783281 104.37528143 -62.18778808 100.75106597 -62.25 97.125 C-62.28351562 96.11179687 -62.31703125 95.09859375 -62.3515625 94.0546875 C-62.4811016 83.95063734 -59.88623928 76.15439846 -52.9296875 68.75 C-49.89353374 65.99656501 -46.58243961 63.96432088 -43 62 C-38.89517965 59.69052702 -38.89517965 59.69052702 -36 56 C-36.52400391 55.09507813 -36.52400391 55.09507813 -37.05859375 54.171875 C-37.74115234 52.97304687 -37.74115234 52.97304687 -38.4375 51.75 C-38.88996094 50.96109375 -39.34242187 50.1721875 -39.80859375 49.359375 C-45.50897429 38.07075256 -44.39993783 17.89115312 -41 6 C-39.05315184 1.41037154 -35.50005056 -0.46946358 -31.0625 -2.375 C-20.7708385 -5.67165604 -9.54185591 -5.33365279 0 0 Z M-34.13671875 5.70703125 C-36.49960502 8.61481791 -36.82144256 10.743894 -37.3125 14.4375 C-37.47363281 15.54996094 -37.63476562 16.66242187 -37.80078125 17.80859375 C-37.98771389 20.80318134 -37.75026724 23.11228078 -37 26 C-36.45287354 25.96447021 -35.90574707 25.92894043 -35.34204102 25.89233398 C-23.11952016 25.12786808 -11.20559833 24.9602046 1 26 C2.19960128 19.07699985 2.3577501 13.3395359 -1 7 C-5.82352925 1.91573944 -11.0799919 0.88408514 -17.875 0.6875 C-24.14690045 0.80422271 -29.10578967 1.68780637 -34.13671875 5.70703125 Z M-30.4375 30 C-31.67371094 30.185625 -32.90992188 30.37125 -34.18359375 30.5625 C-35.11300781 30.706875 -36.04242188 30.85125 -37 31 C-37.61435394 40.12998211 -36.58074258 46.77656004 -30.5625 53.875 C-25.49654909 58.07603246 -22.19838498 59.64921447 -15.5625 59.40234375 C-11.2135211 58.71950103 -8.15585713 57.05066189 -5 54 C-1.02879197 48.35930401 1.14402874 43.24244294 1.0625 36.3125 C1.05347656 35.31863281 1.04445312 34.32476562 1.03515625 33.30078125 C1.02355469 32.54152344 1.01195312 31.78226563 1 31 C-1.68693722 30.66148822 -4.37440289 30.329064 -7.0625 30 C-7.81466797 29.90460937 -8.56683594 29.80921875 -9.34179688 29.7109375 C-16.55356864 28.83678335 -23.23065002 28.90181334 -30.4375 30 Z M-6 60 C-6.763125 60.474375 -7.52625 60.94875 -8.3125 61.4375 C-13.31752174 64.14493112 -19.49687012 63.54746899 -25 63 C-27.26171875 61.96484375 -27.26171875 61.96484375 -29 61 C-31.17323569 61.14681461 -31.17323569 61.14681461 -33 62 C-33.33 62.66 -33.66 63.32 -34 64 C-28.94647258 69.96348734 -23.58288259 75.53105379 -18 81 C-17.29488281 80.29488281 -16.58976562 79.58976562 -15.86328125 78.86328125 C-11.2421875 74.2421875 -6.62109375 69.62109375 -2 65 C-3.3089572 61.87802522 -3.3089572 61.87802522 -6 60 Z " fill="#000000" transform="translate(62,14)"/>
<path d="M0 0 C0.825 -0.01289063 1.65 -0.02578125 2.5 -0.0390625 C6.14931246 0.93028612 7.61840338 2.73463875 10 5.625 C10.61231995 8.84336853 10.61231995 8.84336853 10.59594727 12.52319336 C10.60203506 13.53395683 10.60203506 13.53395683 10.60824585 14.56513977 C10.61374659 16.02141782 10.60780076 17.47777516 10.59158516 18.93397331 C10.56609847 21.24272491 10.57098303 23.54969692 10.58348083 25.85853577 C10.60420128 30.76005403 10.58456632 35.66101832 10.5625 40.5625 C10.54136466 46.24109191 10.53688528 51.91910867 10.56300163 57.59768867 C10.5663523 59.86582722 10.54517681 62.13285628 10.52259827 64.40086365 C10.52511083 65.79971555 10.52867216 67.1985661 10.53344727 68.59741211 C10.52724869 69.8125499 10.52105011 71.02768768 10.5146637 72.27964783 C11.09491661 76.2792463 12.64331826 78.39312851 15 81.625 C15.97984514 87.15824313 15.72118804 92.10249191 13.3125 97.1875 C10.21064779 100.4570199 7.61649202 102.38350523 3.09765625 103.05859375 C-3.05071801 103.06650672 -7.31314296 103.0715054 -12 98.625 C-14.66697465 94.89379988 -15.43161381 92.26106993 -15.4375 87.6875 C-15.45683594 86.68847656 -15.47617188 85.68945312 -15.49609375 84.66015625 C-15 81.625 -15 81.625 -12.99815369 78.87452698 C-10.66458027 75.0795187 -10.51091964 73.01361327 -10.53344727 68.59741211 C-10.53114105 67.92181747 -10.52883484 67.24622284 -10.52645874 66.55015564 C-10.52384206 65.0933372 -10.53020789 63.63647998 -10.54471016 62.17973137 C-10.56670174 59.87132641 -10.56284773 57.56422409 -10.55223083 55.25575256 C-10.53062366 49.52636895 -10.54793712 43.7972803 -10.57373047 38.06793213 C-10.59514632 33.21783562 -10.59706776 28.36857803 -10.57081413 23.51849556 C-10.56647068 21.2485157 -10.59107258 18.98000381 -10.61634827 16.71018982 C-10.61107645 15.31451772 -10.60435327 13.9188501 -10.59594727 12.52319336 C-10.60135025 11.30885117 -10.60675323 10.09450897 -10.61231995 8.84336853 C-9.52195338 3.11237536 -5.81873971 -0.09091781 0 0 Z M-4.66345215 7.73667908 C-6.26683788 11.20164484 -6.37825189 13.65019177 -6.38476562 17.46313477 C-6.3901384 18.1304361 -6.39551117 18.79773743 -6.40104675 19.48526001 C-6.4107927 20.92677995 -6.41377855 22.36835834 -6.41069031 23.80990791 C-6.40619841 26.09262579 -6.42024892 28.37457414 -6.43908691 30.6572113 C-6.48203307 36.32343745 -6.49312102 41.9896455 -6.50531006 47.65600586 C-6.51684037 52.45071214 -6.54040115 57.2450661 -6.58000183 62.03962517 C-6.59356966 64.28654165 -6.58940257 66.53298113 -6.58459473 68.77992249 C-6.59393519 70.15870777 -6.60410397 71.53748777 -6.61523438 72.91625977 C-6.61728882 74.11807388 -6.61934326 75.319888 -6.62145996 76.55812073 C-7.03821552 79.93461687 -7.88935235 81.06015177 -10 83.625 C-10.53198011 88.412821 -10.72509014 90.48902545 -8.125 94.5625 C-4.8698054 97.72195358 -2.57586762 97.95921243 1.9609375 97.91796875 C5.13134567 97.46245033 6.8192402 95.87184343 9 93.625 C10.56516118 90.49467764 10.540337 87.03426916 10 83.625 C9.50616821 83.06066757 9.01233643 82.49633514 8.50354004 81.91490173 C6.46351008 78.8079222 6.62156149 76.61751308 6.61523438 72.91625977 C6.6098616 72.25071075 6.60448883 71.58516174 6.59895325 70.89944458 C6.58919139 69.458455 6.5862263 68.01740675 6.58930969 66.57638741 C6.59379506 64.293474 6.57976815 62.01133281 6.56091309 59.72850037 C6.5241593 54.88151277 6.51042672 50.03460643 6.5 45.1875 C6.4879127 39.57288156 6.46633273 33.9586399 6.41999817 28.3441906 C6.40644663 26.0989838 6.4105953 23.85425557 6.41540527 21.60902405 C6.40606194 20.2270548 6.39589243 18.84509081 6.38476562 17.46313477 C6.38271118 16.26052505 6.38065674 15.05791534 6.37854004 13.81886292 C5.96172182 10.30203477 5.18338328 8.3967087 3 5.625 C-0.71448482 4.851149 -2.24883637 4.67143093 -4.66345215 7.73667908 Z " fill="#000000" transform="translate(113,20.375)"/>
<path d="M0 0 C1.32 0 2.64 0 4 0 C4 22.44 4 44.88 4 68 C5.32 68.66 6.64 69.32 8 70 C8.1953125 76.0546875 8.1953125 76.0546875 8 78 C6 80 6 80 4.125 80.265625 C3.42375 80.26046875 2.7225 80.2553125 2 80.25 C1.29875 80.25515625 0.5975 80.2603125 -0.125 80.265625 C-2 80 -2 80 -4 78 C-4.26991906 75.31160615 -4.08737357 72.70858064 -4 70 C-2.02 69.01 -2.02 69.01 0 68 C0 45.56 0 23.12 0 0 Z M1 73 C1 73.66 1 74.32 1 75 C1.66 75 2.32 75 3 75 C3 74.34 3 73.68 3 73 C2.34 73 1.68 73 1 73 Z " fill="#000000" transform="translate(111,34)"/>
<path d="M0 0 C1.32 0 2.64 0 4 0 C4 10.56 4 21.12 4 32 C2.68 32 1.36 32 0 32 C0 21.44 0 10.88 0 0 Z " fill="#000000" transform="translate(92,47)"/>
<path d="M0 0 C0.33 1.65 0.66 3.3 1 5 C-1.77957206 6.02947113 -2.75649066 6.10096729 -5.5625 4.9375 C-6.366875 4.628125 -7.17125 4.31875 -8 4 C-8.99 4.66 -9.98 5.32 -11 6 C-13.1875 5.625 -13.1875 5.625 -15 5 C-14.67 3.35 -14.34 1.7 -14 0 C-8.53190155 -2.4606443 -5.51272919 -1.71084699 0 0 Z " fill="#000000" transform="translate(51,63)"/>
<path d="M0 0 C1.32 0 2.64 0 4 0 C4 0.99 4 1.98 4 3 C4.99 3 5.98 3 7 3 C7 4.32 7 5.64 7 7 C6.01 7 5.02 7 4 7 C4 7.99 4 8.98 4 10 C2.68 10 1.36 10 0 10 C0 9.01 0 8.02 0 7 C-0.99 7 -1.98 7 -3 7 C-3 5.68 -3 4.36 -3 3 C-2.01 3 -1.02 3 0 3 C0 2.01 0 1.02 0 0 Z " fill="#000000" transform="translate(92,32)"/>
<path d="M0 0 C3.3 0 6.6 0 10 0 C10 1.32 10 2.64 10 4 C6.7 4 3.4 4 0 4 C0 2.68 0 1.36 0 0 Z " fill="#000000" transform="translate(89,85)"/>
</svg>
